<svg width="18" height="21" viewBox="0 0 18 21" fill="none" xmlns="http://www.w3.org/2000/svg">
<path d="M9 16.9062C9.42969 16.9062 9.78125 16.5547 9.78125 16.125V13.625C9.78125 13.1953 9.42969 12.8438 9 12.8438C8.57031 12.8438 8.21875 13.1953 8.21875 13.625V16.125C8.21875 16.5547 8.57031 16.9062 9 16.9062ZM17.75 11.125C17.75 10.1094 16.8906 9.25 15.875 9.25H15.25V6.82812C15.25 3.39062 12.4375 0.539062 9 0.5C5.5625 0.5 2.75 3.3125 2.75 6.75V9.25H2.125C1.07031 9.25 0.25 10.1094 0.25 11.125V18.625C0.25 19.6797 1.07031 20.5 2.125 20.5H15.875C16.8906 20.5 17.75 19.6797 17.75 18.625V11.125ZM4 9.25V6.75C4 4.01562 6.22656 1.75 9 1.75C11.7344 1.75 14 4.01562 14 6.75V9.25H4ZM16.5 18.625C16.5 18.9766 16.1875 19.25 15.875 19.25H2.125C1.77344 19.25 1.5 18.9766 1.5 18.625V11.125C1.5 10.8125 1.77344 10.5 2.125 10.5H15.875C16.1875 10.5 16.5 10.8125 16.5 11.125V18.625Z" fill="white"/>
</svg>
