<svg width="18" height="21" viewBox="0 0 18 21" fill="none" xmlns="http://www.w3.org/2000/svg">
<path d="M9 19.25C8.29688 19.25 7.75 18.7031 7.75 18H6.5C6.5 19.4062 7.59375 20.5 9 20.5C10.3672 20.5 11.5 19.4062 11.5 18H10.25C10.25 18.7031 9.66406 19.25 9 19.25ZM17.1641 13.5859C16.0703 12.5703 15.25 11.4766 15.25 7.76562C15.25 4.67969 12.75 2.14062 9.625 1.82812V1.125C9.625 0.8125 9.3125 0.5 9 0.5C8.64844 0.5 8.375 0.8125 8.375 1.125V1.82812C5.21094 2.14062 2.71094 4.67969 2.71094 7.76562C2.71094 11.4766 1.89062 12.5703 0.796875 13.5859C0.25 14.1328 0.09375 14.9141 0.367188 15.6172C0.640625 16.3203 1.34375 16.75 2.125 16.75H15.875C16.6172 16.75 17.3203 16.3203 17.5938 15.6172C17.8672 14.9141 17.7109 14.1328 17.1641 13.5859ZM15.875 15.5H2.125C1.53906 15.5 1.26562 14.875 1.65625 14.4844C3.02344 13.1953 3.96094 11.75 3.96094 7.76562C3.96094 5.14844 6.22656 3 9 3C11.7344 3 14 5.14844 14 7.76562C14 11.75 14.9375 13.1953 16.3047 14.4844C16.6953 14.875 16.4219 15.5 15.875 15.5Z" fill="white"/>
</svg>
