<svg width="23" height="21" viewBox="0 0 23 21" fill="none" xmlns="http://www.w3.org/2000/svg">
<path d="M21.7734 3H5.28906L4.9375 1.28125C4.85938 0.851562 4.46875 0.5 4.03906 0.5H0.71875C0.445312 0.5 0.25 0.734375 0.25 0.96875V1.28125C0.25 1.55469 0.445312 1.75 0.71875 1.75H3.76562L6.5 16.3203C6.10938 16.7891 5.875 17.375 5.875 18C5.875 19.4062 6.96875 20.5 8.375 20.5C9.74219 20.5 10.875 19.4062 10.875 18C10.875 17.5703 10.7188 17.1406 10.5234 16.75H16.1875C15.9922 17.1406 15.875 17.5703 15.875 18C15.875 19.4062 16.9688 20.5 18.375 20.5C19.7422 20.5 20.875 19.4062 20.875 18C20.875 17.3359 20.5625 16.6719 20.0938 16.2422C20.0156 15.8125 19.625 15.5 19.1953 15.5H7.63281L7.16406 13H20.0938C20.5625 13 20.9141 12.7266 21.0312 12.2578L22.7109 4.13281C22.8281 3.54688 22.3984 3 21.7734 3ZM9.625 18C9.625 18.7031 9.03906 19.25 8.375 19.25C7.67188 19.25 7.125 18.7031 7.125 18C7.125 17.3359 7.67188 16.75 8.375 16.75C9.03906 16.75 9.625 17.3359 9.625 18ZM18.375 19.25C17.6719 19.25 17.125 18.7031 17.125 18C17.125 17.3359 17.6719 16.75 18.375 16.75C19.0391 16.75 19.625 17.3359 19.625 18C19.625 18.7031 19.0391 19.25 18.375 19.25ZM19.8594 11.75H6.92969L5.52344 4.25H21.4219L19.8594 11.75Z" fill="white"/>
</svg>
