<svg width="20" height="21" viewBox="0 0 20 21" fill="none" xmlns="http://www.w3.org/2000/svg">
<path d="M7.5 9.25C7.5 8.58594 6.91406 8 6.25 8H5C3.59375 8 2.5 9.13281 2.5 10.5V13C2.5 14.3672 3.59375 15.5 5 15.5H6.25C6.91406 15.5 7.5 14.9531 7.5 14.25V9.25ZM6.25 14.25H5C4.29688 14.25 3.75 13.7031 3.75 13V10.5C3.75 9.83594 4.29688 9.25 5 9.25H6.25V14.25ZM15 15.5C16.3672 15.5 17.5 14.3672 17.5 13V10.5C17.5 9.13281 16.3672 8 15 8H13.75C13.0469 8 12.5 8.58594 12.5 9.25V14.25C12.5 14.9531 13.0469 15.5 13.75 15.5H15ZM13.75 9.25H15C15.6641 9.25 16.25 9.83594 16.25 10.5V13C16.25 13.7031 15.6641 14.25 15 14.25H13.75V9.25ZM10 0.5C4.41406 0.5 0.117188 5.10938 0 10.5V11.4375C0 11.6328 0.117188 11.75 0.3125 11.75H0.9375C1.09375 11.75 1.25 11.6328 1.25 11.4375V10.5C1.36719 5.8125 5.11719 1.75 10 1.75C14.8047 1.75 18.75 5.69531 18.75 10.5V17.375C18.75 18.4297 17.8906 19.25 16.875 19.25H13.6328C13.6719 19.0547 13.75 18.8594 13.75 18.625C13.75 17.6094 12.8906 16.75 11.875 16.75H9.375C8.32031 16.75 7.5 17.6094 7.5 18.625C7.5 19.6797 8.32031 20.5 9.375 20.5H16.875C18.5938 20.5 20 19.1328 20 17.375V10.5C20 4.99219 15.5078 0.5 10 0.5ZM11.875 19.25H9.375C9.02344 19.25 8.75 18.9766 8.75 18.625C8.75 18.3125 9.02344 18 9.375 18H11.875C12.1875 18 12.5 18.3125 12.5 18.625C12.5 18.9766 12.1875 19.25 11.875 19.25Z" fill="white"/>
</svg>
